<svg xmlns="http://www.w3.org/2000/svg" version="1.1" xmlns:xlink="http://www.w3.org/1999/xlink" xmlns:svgjs="http://svgjs.dev/svgjs" width="1500" height="1500" viewBox="0 0 1500 1500"><rect width="1500" height="1500" fill="#14293a"></rect><g transform="matrix(0.6666666666666666,0,0,0.6666666666666666,248.93161816126025,266.11075268817194)"><svg viewBox="0 0 257 248" data-background-color="#14293a" preserveAspectRatio="xMidYMid meet" height="1447" width="1500" xmlns="http://www.w3.org/2000/svg" xmlns:xlink="http://www.w3.org/1999/xlink"><g id="tight-bounds" transform="matrix(1,0,0,1,0.2745741325561255,0.4000000000000057)"><svg viewBox="0 0 256.45085173488775 247.2" height="247.2" width="256.45085173488775"><g><svg viewBox="0 0 395.52 381.25256102122336" height="247.2" width="256.45085173488775"><g transform="matrix(1,0,0,1,0,276.09920754690313)"><svg viewBox="0 0 395.52 105.15335347432023" height="105.15335347432023" width="395.52"><g id="textblocktransform"><svg viewBox="0 0 395.52 105.15335347432023" height="105.15335347432023" width="395.52" id="textblock"><g><svg viewBox="0 0 395.52 105.15335347432023" height="105.15335347432023" width="395.52"><g transform="matrix(1,0,0,1,0,0)"><svg width="395.52" viewBox="2.5 -38.55 148.94 39.599999999999994" height="105.15335347432023" data-palette-color="#e9e4de"><path d="M26.9-38.55L27.85-38.55 27.85-30.55 26.9-30.55Q26.9-30.9 26.75-31.25 26.6-31.6 26.35-31.6L26.35-31.6 10.15-31.6 10.15-22.75 23.25-22.75Q23.5-22.75 23.65-23.1 23.8-23.45 23.8-23.8L23.8-23.8 24.75-23.8 24.75-15.8 23.8-15.8Q23.8-16.15 23.65-16.5 23.5-16.85 23.25-16.85L23.25-16.85 10.15-16.85 10.15-1.5Q10.15-1.25 10.53-1.1 10.9-0.95 11.3-0.95L11.3-0.95 11.3 0 2.5 0 2.5-0.95Q2.9-0.95 3.28-1.1 3.65-1.25 3.65-1.5L3.65-1.5 3.65-36Q3.65-36.25 3.28-36.4 2.9-36.55 2.55-36.55L2.55-36.55 2.55-37.5 26.35-37.5Q26.6-37.5 26.75-37.85 26.9-38.2 26.9-38.55L26.9-38.55ZM55.7-7.15L56.65-7.15 56.65 1.05 55.7 1.05Q55.7 0.75 55.55 0.38 55.4 0 55.15 0L55.15 0 31.4 0 31.4-0.95Q31.75-0.95 32.12-1.1 32.5-1.25 32.5-1.5L32.5-1.5 32.5-36Q32.5-36.25 32.1-36.4 31.7-36.55 31.35-36.55L31.35-36.55 31.35-37.5 40.35-37.5 40.35-36.55Q40-36.55 39.6-36.4 39.2-36.25 39.2-36L39.2-36 39.2-6.1 55.15-6.1Q55.4-6.1 55.55-6.48 55.7-6.85 55.7-7.15L55.7-7.15ZM61.85-36Q61.85-36.25 61.45-36.4 61.05-36.55 60.65-36.55L60.65-36.55 60.65-37.5 69.84-37.5 69.84-36.55Q69.45-36.55 69.05-36.4 68.65-36.25 68.65-36L68.65-36 68.65-1.5Q68.65-1.25 69.05-1.1 69.45-0.95 69.84-0.95L69.84-0.95 69.84 0 60.65 0 60.65-0.95Q61.05-0.95 61.45-1.1 61.85-1.25 61.85-1.5L61.85-1.5 61.85-36ZM111.64-37.5L111.64-36.55 111.04-36.55Q110.24-36.55 110.09-36.35L110.09-36.35 96.19-18.85 109.34-1.2Q109.54-0.95 110.17-0.95 110.79-0.95 110.84-0.95L110.84-0.95 110.84 0 100.24 0 100.24-0.95Q100.84-0.95 100.84-1.2L100.84-1.2Q100.84-1.3 100.64-1.6L100.64-1.6 91.84-13.1 82.99-1.6Q82.89-1.4 82.89-1.35L82.89-1.35Q82.89-1.2 83.17-1.07 83.44-0.95 83.89-0.95L83.89-0.95 83.89 0 72.84 0 72.84-0.95 73.19-0.95Q74.09-0.95 74.34-1.2L74.34-1.2 87.34-18.45 74.34-36.3Q74.14-36.55 73.52-36.55 72.89-36.55 72.84-36.55L72.84-36.55 72.84-37.5 82.54-37.5 82.54-36.55Q81.94-36.55 81.94-36.35L81.94-36.35Q81.94-36.3 82.04-36.15 82.14-36 82.19-35.95L82.19-35.95 91.89-23.65 101.44-35.9Q101.54-36.1 101.54-36.15L101.54-36.15Q101.54-36.55 100.59-36.55L100.59-36.55 100.59-37.5 111.64-37.5ZM151.44-37.5L151.44-36.55 150.84-36.55Q150.04-36.55 149.89-36.35L149.89-36.35 135.99-18.85 149.14-1.2Q149.34-0.95 149.97-0.95 150.59-0.95 150.64-0.95L150.64-0.95 150.64 0 140.04 0 140.04-0.95Q140.64-0.95 140.64-1.2L140.64-1.2Q140.64-1.3 140.44-1.6L140.44-1.6 131.64-13.1 122.79-1.6Q122.69-1.4 122.69-1.35L122.69-1.35Q122.69-1.2 122.97-1.07 123.24-0.95 123.69-0.95L123.69-0.95 123.69 0 112.64 0 112.64-0.95 112.99-0.95Q113.89-0.95 114.14-1.2L114.14-1.2 127.14-18.45 114.14-36.3Q113.94-36.55 113.32-36.55 112.69-36.55 112.64-36.55L112.64-36.55 112.64-37.5 122.34-37.5 122.34-36.55Q121.74-36.55 121.74-36.35L121.74-36.35Q121.74-36.3 121.84-36.15 121.94-36 121.99-35.95L121.99-35.95 131.69-23.65 141.24-35.9Q141.34-36.1 141.34-36.15L141.34-36.15Q141.34-36.55 140.39-36.55L140.39-36.55 140.39-37.5 151.44-37.5Z" opacity="1" transform="matrix(1,0,0,1,0,0)" fill="#e9e4de" class="wordmark-text-0" data-fill-palette-color="primary" id="text-0"></path></svg></g></svg></g></svg></g></svg></g><g transform="matrix(1,0,0,1,84.53457930135204,0)"><svg viewBox="0 0 226.4508413972959 226.4508413972959" height="226.4508413972959" width="226.4508413972959"><g><svg></svg></g><g id="icon-0"><svg viewBox="0 0 226.4508413972959 226.4508413972959" height="226.4508413972959" width="226.4508413972959"><g><path d="M0 113.225c0-62.533 50.693-113.225 113.225-113.225 62.533 0 113.225 50.693 113.226 113.225 0 62.533-50.693 113.225-113.226 113.226-62.533 0-113.225-50.693-113.225-113.226zM113.225 216.968c57.295 0 103.743-46.447 103.743-103.743 0-57.295-46.447-103.743-103.743-103.742-57.295 0-103.743 46.447-103.742 103.742 0 57.295 46.447 103.743 103.742 103.743z" data-fill-palette-color="tertiary" fill="#e9e4de" stroke="transparent"></path></g><g transform="matrix(1,0,0,1,52.316189572603214,48.51029053789783)"><svg viewBox="0 0 121.81846225208947 129.43026032150024" height="129.43026032150024" width="121.81846225208947"><g><svg version="1.1" xmlns="http://www.w3.org/2000/svg" xmlns:xlink="http://www.w3.org/1999/xlink" x="0" y="0" viewBox="0 0 94.11901231775455 100.00001674853281" enable-background="new 0 0 94.119 100" xml:space="preserve" id="dxe-0" width="121.81846225208947" height="129.43026032150024" class="icon-dxe-0" data-fill-palette-color="accent"><polygon points="82.354,0 69.118,3.861 75.552,21.324 88.235,17.647 " fill="#99abc1" data-fill-palette-color="accent"></polygon><polygon points="61.031,6.067 43.75,11.029 44.118,11.765 47.427,20.772 50.368,28.493 67.648,23.53 " fill="#99abc1" data-fill-palette-color="accent"></polygon><polygon points="35.846,13.235 20.589,17.647 27.207,35.111 42.464,30.699 38.604,20.772 " fill="#99abc1" data-fill-palette-color="accent"></polygon><polygon points="12.684,19.853 0,23.53 5.883,41.177 19.118,37.317 " fill="#99abc1" data-fill-palette-color="accent"></polygon><path d="M5.883 41.177V94.118A5.87 5.87 0 0 0 11.765 100H88.235A5.87 5.87 0 0 0 94.119 94.118V41.177zM82.354 70.588H17.647V52.942H82.353z" fill="#99abc1" data-fill-palette-color="accent"></path></svg></g></svg></g></svg></g></svg></g><g></g></svg></g><defs></defs></svg><rect width="256.45085173488775" height="247.2" fill="none" stroke="none" visibility="hidden"></rect></g></svg></g></svg>